<svg xmlns="http://www.w3.org/2000/svg" version="1.1" width="40px" height="40px"
    style="shape-rendering:geometricPrecision; text-rendering:geometricPrecision; image-rendering:optimizeQuality; fill-rule:evenodd; clip-rule:evenodd"
    xmlns:xlink="http://www.w3.org/1999/xlink" viewBox="0 0 40px 40px">
    <g>
        <path style="opacity:0.984" fill="#b73e3e"
            d="M19.258 -0.039h1.406c1.833 0.749 2.445 2.078 1.836 3.984 -0.413 0.738 -1.025 1.233 -1.836 1.484a3.543 3.543 0 0 1 -1.406 0c-1.666 -0.589 -2.33 -1.761 -1.992 -3.516 0.347 -0.985 1.011 -1.636 1.992 -1.953Z" />
    </g>
    <g>
        <path style="opacity:0.981" fill="#a5a5a4" d="M19.258 5.43a3.543 3.543 0 0 0 1.406 0v5.547h-1.406v-5.547Z" />
    </g>
    <g>
        <path style="opacity:0.997" fill="#e12929"
            d="M19.258 10.977h1.406c4.141 -0.013 8.281 0 12.422 0.039 1.862 0.404 2.995 1.536 3.398 3.398 0.039 1.38 0.052 2.76 0.039 4.141v8.359a46.811 46.811 0 0 1 -0.117 4.531c-0.586 1.706 -1.771 2.708 -3.555 3.008l-16.25 0.078a179.489 179.489 0 0 0 -7.266 4.766c-0.56 0.221 -0.937 0.052 -1.133 -0.508a54.896 54.896 0 0 0 -0.156 -4.063 0.545 0.545 0 0 0 -0.273 -0.195c-2.312 -0.1 -3.757 -1.259 -4.336 -3.477 -0.039 -1.38 -0.052 -2.76 -0.039 -4.141v-8.359c-0.013 -1.38 0 -2.761 0.039 -4.141 0.404 -1.862 1.536 -2.995 3.398 -3.398 4.141 -0.039 8.281 -0.052 12.422 -0.039Z" />
    </g>
    <g>
        <path style="opacity:1" fill="#fdfdfe"
            d="m14.492 23.789 0.117 0.234c0.039 -1.953 0.052 -3.906 0.039 -5.859h1.797v8.516a13.275 13.275 0 0 1 -2.031 -0.078c-1.251 -1.929 -2.501 -3.856 -3.75 -5.781 -0.022 -0.062 -0.061 -0.114 -0.117 -0.156 -0.039 2.005 -0.052 4.01 -0.039 6.016h-1.797v-8.516c0.704 -0.013 1.407 0 2.109 0.039a380.608 380.608 0 0 1 3.672 5.586Z" />
    </g>
    <g>
        <path style="opacity:1" fill="#e9e9e9"
            d="M14.648 18.164c0.013 1.953 0 3.906 -0.039 5.859l-0.117 -0.234 0.156 -5.625Z" />
    </g>
    <g>
        <path style="opacity:1" fill="#fdfdfe"
            d="M18.32 18.164h5v1.563h-3.047v1.875h2.813v1.563h-2.813v1.953h3.203v1.563h-5.156v-8.516Z" />
    </g>
    <g>
        <path style="opacity:1" fill="#fdfdfe"
            d="M24.492 18.164a17.638 17.638 0 0 1 2.344 0.078 84.7 84.7 0 0 1 1.445 3.125 36.012 36.012 0 0 1 1.602 -3.164 15.324 15.324 0 0 1 2.188 0 342.481 342.481 0 0 0 -2.578 4.18 225.385 225.385 0 0 0 2.656 4.258 11.761 11.761 0 0 1 -2.344 -0.039 36.449 36.449 0 0 1 -1.602 -3.203 63.747 63.747 0 0 1 -1.68 3.242c-0.757 0.065 -1.512 0.052 -2.266 -0.039a212.685 212.685 0 0 0 2.656 -4.18 114.784 114.784 0 0 1 -2.422 -4.258Z" />
    </g>
    <g>
        <path style="opacity:0.989" fill="rgba(225,41,41,0.743)"
            d="M3.398 18.555v8.359c-0.767 0.045 -1.522 -0.02 -2.266 -0.195 -0.578 -0.304 -0.969 -0.76 -1.172 -1.367v-5.313c0.222 -0.661 0.665 -1.117 1.328 -1.367a10.408 10.408 0 0 1 2.109 -0.117Z" />
    </g>
    <g>
        <path style="opacity:0.989" fill="rgba(233,43,43,0.728)"
            d="M36.523 18.555a10.409 10.409 0 0 1 2.109 0.117c0.628 0.284 1.071 0.74 1.328 1.367v5.313c-0.298 0.857 -0.897 1.365 -1.797 1.523 -0.546 0.039 -1.093 0.052 -1.641 0.039v-8.359Z" />
    </g>
    <g>
        <path style="opacity:1" fill="#d5e5f3"
            d="m10.664 20.82 -0.156 5.859c-0.013 -2.005 0 -4.011 0.039 -6.016 0.056 0.043 0.095 0.095 0.117 0.156Z" />
    </g>
</svg>